GIL08_slow4_RRA_states
nRows=7
nColumns=47

# SIMM Motion File Header:
name GIL08_slow4_RRA_states
datacolumns 47
datarows 7
otherdata 1
range 0.85167000000000048000 0.85467000000000048000
endheader
time	pelvis_tx	pelvis_ty	pelvis_tz	pelvis_tilt	pelvis_list	pelvis_rotation	hip_flexion_r	hip_adduction_r	hip_rotation_r	knee_angle_r	ankle_angle_r	subtalar_angle_r	mtp_angle_r	hip_flexion_l	hip_adduction_l	hip_rotation_l	knee_angle_l	ankle_angle_l	subtalar_angle_l	mtp_angle_l	lumbar_extension	lumbar_bending	lumbar_rotation	pelvis_tx_u	pelvis_ty_u	pelvis_tz_u	pelvis_tilt_u	pelvis_list_u	pelvis_rotation_u	hip_flexion_r_u	hip_adduction_r_u	hip_rotation_r_u	knee_angle_r_u	ankle_angle_r_u	subtalar_angle_r_u	mtp_angle_r_u	hip_flexion_l_u	hip_adduction_l_u	hip_rotation_l_u	knee_angle_l_u	ankle_angle_l_u	subtalar_angle_l_u	mtp_angle_l_u	lumbar_extension_u	lumbar_bending_u	lumbar_rotation_u
      0.85167000000000048000	     -1.73746436640447400000	      0.94514158541462046000	      0.18495645423105395000	      5.34515669755432030000	     -1.23232218313535900000	      5.57180142032540630000	     15.99740345694949200000	      0.81579338147624836000	     -1.07811103590237290000	    -13.86849596207693300000	     -5.43025976062478400000	     -0.00000000000000285280	     -0.00000000000002286972	    -14.97493174347352800000	     -2.92804623635069160000	      6.22532475860362670000	    -21.49210957588347200000	     12.09794550148855500000	     -0.00000000000039276187	      0.00000000000049729721	    -10.26273196997770900000	      2.60042292032997140000	      2.22941531378168190000	      0.86147208912730777000	      0.09813124575960639800	      0.08507501593666737200	      1.21954705404740940000	     -1.28422924191399020000	    -13.70802105003725500000	    -25.52042219708539900000	     13.20991024848423300000	    -31.98357024243780700000	    -47.38296452123003600000	    -13.47535596347570300000	      0.00000000000005008220	     -0.00000000000014587570	     31.98243724638734900000	    -14.27488097475731300000	    -40.57011991999896600000	   -140.26755230115097000000	   -118.08621683651212000000	     -0.00000000000065796167	      0.00000000000034192143	      5.96001730362191750000	     13.24043825622579900000	     15.47942336092421600000
      0.85217000000000043000	     -1.73703361170837020000	      0.94519086500997407000	      0.18499905352370632000	      5.34577017801225550000	     -1.23295299891088230000	      5.56491036471854720000	     15.98454563092796100000	      0.82238329777557517000	     -1.09383720650663370000	    -13.89203541757174100000	     -5.43677806328779310000	     -0.00000000000000282710	     -0.00000000000002294147	    -14.95888151224999500000	     -2.93518524012662850000	      6.20494747310872000000	    -21.56228457538781400000	     12.03863121781655500000	     -0.00000000000039309395	      0.00000000000049747189	    -10.25975769764617200000	      2.60703210801017040000	      2.23710135994070350000	      0.86154609964865358000	      0.09898642630948192900	      0.08532143873708135400	      1.23428951586617310000	     -1.23897414132342250000	    -13.85592819588946000000	    -25.91104945610899100000	     13.14979727987888900000	    -30.92097171453883000000	    -46.77428389281746500000	    -12.59849497709279800000	      0.00000000000005252040	     -0.00000000000013315515	     32.21868958434063000000	    -14.28125961512424000000	    -40.93928029310299600000	   -140.43210943236079000000	   -119.17197984287741000000	     -0.00000000000066867550	      0.00000000000034839191	      5.93718393163914100000	     13.19635322171008500000	     15.26450807314190800000
      0.85267000000000048000	     -1.73660282088891990000	      0.94524057113708493000	      0.18504177496135304000	      5.34639090839127550000	     -1.23356109295363250000	      5.55794576365223400000	     15.97149222974429400000	      0.82894322249799435000	     -1.10903185456456610000	    -13.91526968357983100000	     -5.44285871526657420000	     -0.00000000000000280006	     -0.00000000000002300730	    -14.94271287083889500000	     -2.94232761937538130000	      6.18438522416973770000	    -21.63254130617979600000	     11.97877227417597200000	     -0.00000000000039343136	      0.00000000000049765874	    -10.25679468060984200000	      2.61361930861675560000	      2.24467956920431440000	      0.86161660555279262000	      0.09983738279553572300	      0.08556361053894150100	      1.24855992927117840000	     -1.19333315968225650000	    -14.00220600271969800000	    -26.30274285602997300000	     13.08994679558588500000	    -29.85745629307297100000	    -46.16222928300742700000	    -11.72439177880115800000	      0.00000000000005476562	     -0.00000000000013505415	     32.45603984775392800000	    -14.28837869871041600000	    -41.30996506937405900000	   -140.59439131814585000000	   -120.26522476860076000000	     -0.00000000000068238404	      0.00000000000040959813	      5.91498316420312160000	     13.15247864512726000000	     15.04807712976157300000
      0.85317000000000043000	     -1.73617199570206360000	      0.94529070166977558000	      0.18508461642565685000	      5.34701865617554000000	     -1.23414627269293530000	      5.55090844021823230000	     15.95824272581823400000	      0.83547329284445138000	     -1.12369458472799090000	    -13.93819710835921200000	     -5.44850294863584230000	     -0.00000000000000277317	     -0.00000000000002307846	    -14.92642528390073900000	     -2.94947374954883430000	      6.16363727147248500000	    -21.70287859260980700000	     11.91836473673620700000	     -0.00000000000039377421	      0.00000000000049786700	    -10.25384260727388500000	      2.62018462432050030000	      2.25214919135435920000	      0.86168351593507253000	      0.10068400028959998000	      0.08580153041711274800	      1.26233976656817040000	     -1.14733601030607120000	    -14.14679457984121000000	    -26.69540941201744000000	     13.03038600980792300000	    -28.79347385367828900000	    -45.54694404799708000000	    -10.85324980412361600000	      0.00000000000005681872	     -0.00000000000015018140	     32.69452072226641800000	    -14.29628217848576500000	    -41.68206880570446800000	   -140.75442819453164000000	   -121.36600465629820000000	     -0.00000000000068548611	      0.00000000000041853834	      5.89342564190574690000	     13.10883017803808700000	     14.83017213216760600000
      0.85367000000000048000	     -1.73574113798714920000	      0.94534125439543026000	      0.18512757578261221000	      5.34765316352079800000	     -1.23470837466602970000	      5.54379926069387880000	     15.94479667292807300000	      0.84197366119556927000	     -1.13782532585857780000	    -13.96081611093802800000	     -5.45371248609473990000	     -0.00000000000000274278	     -0.00000000000002315274	    -14.91001815671921600000	     -2.95662403977416320000	      6.14270293628815980000	    -21.77329536400392800000	     11.85740501277626500000	     -0.00000000000039411690	      0.00000000000049807957	    -10.25090114617780500000	      2.62672817928676490000	      2.25950950245762970000	      0.86174674128936324000	      0.10152616513665337000	      0.08603519498965804500	      1.27561180796949250000	     -1.10101313258109350000	    -14.28963323063350200000	    -27.08896003622227200000	     12.97114138580088200000	    -27.72947747826059800000	    -44.92855904218479400000	     -9.98523378072709100000	      0.00000000000006919007	     -0.00000000000014930597	     32.93416160204159800000	    -14.30501496411856300000	    -42.05548655591562800000	   -140.91224242841955000000	   -122.47432206290244000000	     -0.00000000000069901465	      0.00000000000046900677	      5.87252084579397860000	     13.06542473044181200000	     14.61083411393203200000
      0.85417000000000043000	     -1.73531024958970610000	      0.94539222707401616000	      0.18517065091142468000	      5.34829418032765250000	     -1.23524723646085090000	      5.53661910854915810000	     15.93115363422967900000	      0.84844449127488275000	     -1.15142413411217200000	    -13.98312517479425700000	     -5.45848873646237550000	     -0.00000000000000270848	     -0.00000000000002322919	    -14.89349092335915600000	     -2.96377890979146220000	      6.12158158403895580000	    -21.84379046980486500000	     11.79588915015289500000	     -0.00000000000039446514	      0.00000000000049831105	    -10.24796997586552600000	      2.63325009208862100000	      2.26675979339817070000	      0.86180619301726191000	      0.10236376358945398000	      0.08626460384918562000	      1.28835793504188430000	     -1.05439416845780840000	    -14.43066230062913600000	    -27.48329960539851800000	     12.91223909246986100000	    -26.66591395285122000000	    -44.30721874934844400000	     -9.12054185098352650000	      0.00000000000007121073	     -0.00000000000014704871	     33.17499571792924200000	    -14.31461947698203500000	    -42.43010912867823900000	   -141.06786483187102000000	   -123.59022364605313000000	     -0.00000000000068831281	      0.00000000000044284301	      5.85227942061529480000	     13.02227762969604500000	     14.39010392110917800000
      0.85467000000000048000	     -1.73487933243759820000	      0.94544361737936966000	      0.18521383967676414000	      5.34894143099579190000	     -1.23576272454767830000	      5.52936891003247410000	     15.91731325698223800000	      0.85488596159318986000	     -1.16449138672080620000	    -14.00512285908019900000	     -5.46283360866250510000	     -0.00000000000000266868	     -0.00000000000002330353	    -14.87684295707475700000	     -2.97093881177977660000	      6.10027264438429300000	    -21.91436286742498800000	     11.73381352534743400000	     -0.00000000000039481090	      0.00000000000049854151	    -10.24504875460999600000	      2.63975050273717480000	      2.27389938102396450000	      0.86186178391500645000	      0.10319668317275983000	      0.08648975417985489700	      1.30056132952239030000	     -1.00750954423333040000	    -14.56982134346934300000	    -27.87833685710881000000	     12.85370466700459600000	    -25.60323330525891100000	    -43.68305519081218300000	     -8.25933403405746520000	      0.00000000000008117087	     -0.00000000000014205600	     33.41705301083082000000	    -14.32513914367007900000	    -42.80582791190870000000	   -141.22131835943338000000	   -124.71370494122017000000	     -0.00000000000067925957	      0.00000000000042203612	      5.83271086223865880000	     12.97940552092466700000	     14.16802185690798200000
